<svg xmlns="http://www.w3.org/2000/svg" viewBox="0 0 64 64" width="64" height="64">
  <path d="M6 16C6 13.2 8.2 11 11 11H24L29 17H53C55.8 17 58 19.2 58 22V47C58 49.8 55.8 52 53 52H11C8.2 52 6 49.8 6 47V16Z" fill="#C9A567" stroke="#A9824C" stroke-width="1.5"/>
  <path d="M6 24H58V47C58 49.8 55.8 52 53 52H11C8.2 52 6 49.8 6 47V24Z" fill="#F5EBD3" stroke="#A9824C" stroke-width="1.5"/>
  <rect x="27" y="27" width="10" height="26" rx="2" fill="#1E3A5F"/>
  <rect x="19" y="35" width="26" height="10" rx="2" fill="#1E3A5F"/>
</svg>
